<?xml version="1.0" encoding="utf-8" standalone="no"?>
<!DOCTYPE svg PUBLIC "-//W3C//DTD SVG 1.1//EN"
  "http://www.w3.org/Graphics/SVG/1.1/DTD/svg11.dtd">
<svg xmlns:xlink="http://www.w3.org/1999/xlink" width="1009.501425pt" height="510.437812pt" viewBox="0 0 1009.501425 510.437812" xmlns="http://www.w3.org/2000/svg" version="1.1">
 <metadata>
  <rdf:RDF xmlns:dc="http://purl.org/dc/elements/1.1/" xmlns:cc="http://creativecommons.org/ns#" xmlns:rdf="http://www.w3.org/1999/02/22-rdf-syntax-ns#">
   <cc:Work>
    <dc:type rdf:resource="http://purl.org/dc/dcmitype/StillImage"/>
    <dc:date>2025-09-02T20:48:43.018430</dc:date>
    <dc:format>image/svg+xml</dc:format>
    <dc:creator>
     <cc:Agent>
      <dc:title>Matplotlib v3.10.1, https://matplotlib.org/</dc:title>
     </cc:Agent>
    </dc:creator>
   </cc:Work>
  </rdf:RDF>
 </metadata>
 <defs>
  <style type="text/css">*{stroke-linejoin: round; stroke-linecap: butt}</style>
 </defs>
 <g id="figure_1">
  <g id="patch_1">
   <path d="M 0 510.437812 
L 1009.501425 510.437812 
L 1009.501425 0 
L 0 0 
z
" style="fill: #ffffff"/>
  </g>
  <g id="patch_2">
   <path d="M 7.2 503.237812 
L 486.6 503.237812 
L 486.6 23.837812 
L 7.2 23.837812 
z
" style="fill: #ffffff"/>
  </g>
  <g id="pane3d_1">
   <g id="patch_3">
    <path d="M 38.849214 363.400128 
L 246.426658 268.668671 
L 246.178578 70.769001 
L 30.576104 153.194115 
" style="fill: #f2f2f2; opacity: 0.5; stroke: #f2f2f2; stroke-linejoin: miter"/>
   </g>
  </g>
  <g id="pane3d_2">
   <g id="patch_4">
    <path d="M 246.426658 268.668671 
L 466.789223 356.546684 
L 474.974659 147.215617 
L 246.178578 70.769001 
" style="fill: #e6e6e6; opacity: 0.5; stroke: #e6e6e6; stroke-linejoin: miter"/>
   </g>
  </g>
  <g id="pane3d_3">
   <g id="patch_5">
    <path d="M 38.849214 363.400128 
L 261.454709 466.029548 
L 466.789223 356.546684 
L 246.426658 268.668671 
" style="fill: #ececec; opacity: 0.5; stroke: #ececec; stroke-linejoin: miter"/>
   </g>
  </g>
  <g id="grid3d_1">
   <g id="Line3DCollection_1">
    <path d="M 72.402424 378.869407 
L 279.800326 281.977699 
L 280.753881 82.321493 
" style="fill: none; stroke: #b0b0b0; stroke-width: 0.8"/>
    <path d="M 113.987097 398.041489 
L 321.084099 298.441185 
L 323.561377 96.624571 
" style="fill: none; stroke: #b0b0b0; stroke-width: 0.8"/>
    <path d="M 156.788034 417.774314 
L 363.485004 315.35017 
L 367.570214 111.329048 
" style="fill: none; stroke: #b0b0b0; stroke-width: 0.8"/>
    <path d="M 200.859389 438.092849 
L 407.049006 332.722984 
L 412.831683 126.452061 
" style="fill: none; stroke: #b0b0b0; stroke-width: 0.8"/>
    <path d="M 246.258575 459.023564 
L 451.824629 350.578979 
L 459.400036 142.011738 
" style="fill: none; stroke: #b0b0b0; stroke-width: 0.8"/>
   </g>
  </g>
  <g id="grid3d_2">
   <g id="Line3DCollection_2">
    <path d="M 43.14623 148.388539 
L 50.919877 357.891478 
L 273.458181 459.629384 
" style="fill: none; stroke: #b0b0b0; stroke-width: 0.8"/>
    <path d="M 246.178578 70.769001 
L 246.426658 268.668671 
L 466.789223 356.546684 
" style="fill: none; stroke: #b0b0b0; stroke-width: 0.8"/>
   </g>
  </g>
  <g id="grid3d_3">
   <g id="Line3DCollection_3">
    <path d="M 466.844724 355.127321 
L 246.424971 267.323384 
L 38.79313 361.975117 
" style="fill: none; stroke: #b0b0b0; stroke-width: 0.8"/>
    <path d="M 467.700038 333.253865 
L 246.39899 246.597432 
L 37.928808 340.01413 
" style="fill: none; stroke: #b0b0b0; stroke-width: 0.8"/>
    <path d="M 468.562233 311.20442 
L 246.372814 225.716014 
L 37.057495 317.875516 
" style="fill: none; stroke: #b0b0b0; stroke-width: 0.8"/>
    <path d="M 469.431394 288.976853 
L 246.34644 204.677375 
L 36.179106 295.55711 
" style="fill: none; stroke: #b0b0b0; stroke-width: 0.8"/>
    <path d="M 470.307604 266.568996 
L 246.319868 183.479733 
L 35.293554 273.056713 
" style="fill: none; stroke: #b0b0b0; stroke-width: 0.8"/>
    <path d="M 471.190951 243.978647 
L 246.293094 162.121278 
L 34.400752 250.372091 
" style="fill: none; stroke: #b0b0b0; stroke-width: 0.8"/>
    <path d="M 472.081521 221.203568 
L 246.266116 140.600172 
L 33.50061 227.500971 
" style="fill: none; stroke: #b0b0b0; stroke-width: 0.8"/>
    <path d="M 472.979403 198.241484 
L 246.238931 118.914552 
L 32.593037 204.441045 
" style="fill: none; stroke: #b0b0b0; stroke-width: 0.8"/>
    <path d="M 473.884688 175.090081 
L 246.211538 97.062523 
L 31.677941 181.189964 
" style="fill: none; stroke: #b0b0b0; stroke-width: 0.8"/>
    <path d="M 474.797468 151.747009 
L 246.183934 75.042163 
L 30.755227 157.745342 
" style="fill: none; stroke: #b0b0b0; stroke-width: 0.8"/>
   </g>
  </g>
  <g id="axis3d_1">
   <g id="line2d_1">
    <path d="M 38.849214 363.400128 
L 261.454709 466.029548 
" style="fill: none; stroke: #000000; stroke-width: 0.8; stroke-linecap: square"/>
   </g>
   <g id="xtick_1">
    <g id="line2d_2">
     <path d="M 74.190835 378.033901 
L 68.818849 380.543574 
" style="fill: none; stroke: #000000; stroke-width: 0.8; stroke-linecap: square"/>
    </g>
    <g id="text_1">
     <!-- 20000 -->
     <g transform="translate(46.487721 400.712938) scale(0.1 -0.1)">
      <defs>
       <path id="DejaVuSans-32" d="M 1228 531 
L 3431 531 
L 3431 0 
L 469 0 
L 469 531 
Q 828 903 1448 1529 
Q 2069 2156 2228 2338 
Q 2531 2678 2651 2914 
Q 2772 3150 2772 3378 
Q 2772 3750 2511 3984 
Q 2250 4219 1831 4219 
Q 1534 4219 1204 4116 
Q 875 4013 500 3803 
L 500 4441 
Q 881 4594 1212 4672 
Q 1544 4750 1819 4750 
Q 2544 4750 2975 4387 
Q 3406 4025 3406 3419 
Q 3406 3131 3298 2873 
Q 3191 2616 2906 2266 
Q 2828 2175 2409 1742 
Q 1991 1309 1228 531 
z
" transform="scale(0.015625)"/>
       <path id="DejaVuSans-30" d="M 2034 4250 
Q 1547 4250 1301 3770 
Q 1056 3291 1056 2328 
Q 1056 1369 1301 889 
Q 1547 409 2034 409 
Q 2525 409 2770 889 
Q 3016 1369 3016 2328 
Q 3016 3291 2770 3770 
Q 2525 4250 2034 4250 
z
M 2034 4750 
Q 2819 4750 3233 4129 
Q 3647 3509 3647 2328 
Q 3647 1150 3233 529 
Q 2819 -91 2034 -91 
Q 1250 -91 836 529 
Q 422 1150 422 2328 
Q 422 3509 836 4129 
Q 1250 4750 2034 4750 
z
" transform="scale(0.015625)"/>
      </defs>
      <use xlink:href="#DejaVuSans-32"/>
      <use xlink:href="#DejaVuSans-30" transform="translate(63.623047 0)"/>
      <use xlink:href="#DejaVuSans-30" transform="translate(127.246094 0)"/>
      <use xlink:href="#DejaVuSans-30" transform="translate(190.869141 0)"/>
      <use xlink:href="#DejaVuSans-30" transform="translate(254.492188 0)"/>
     </g>
    </g>
   </g>
   <g id="xtick_2">
    <g id="line2d_3">
     <path d="M 115.774772 397.181732 
L 110.404899 399.764295 
" style="fill: none; stroke: #000000; stroke-width: 0.8; stroke-linecap: square"/>
    </g>
    <g id="text_2">
     <!-- 40000 -->
     <g transform="translate(88.007664 420.127522) scale(0.1 -0.1)">
      <defs>
       <path id="DejaVuSans-34" d="M 2419 4116 
L 825 1625 
L 2419 1625 
L 2419 4116 
z
M 2253 4666 
L 3047 4666 
L 3047 1625 
L 3713 1625 
L 3713 1100 
L 3047 1100 
L 3047 0 
L 2419 0 
L 2419 1100 
L 313 1100 
L 313 1709 
L 2253 4666 
z
" transform="scale(0.015625)"/>
      </defs>
      <use xlink:href="#DejaVuSans-34"/>
      <use xlink:href="#DejaVuSans-30" transform="translate(63.623047 0)"/>
      <use xlink:href="#DejaVuSans-30" transform="translate(127.246094 0)"/>
      <use xlink:href="#DejaVuSans-30" transform="translate(190.869141 0)"/>
      <use xlink:href="#DejaVuSans-30" transform="translate(254.492188 0)"/>
     </g>
    </g>
   </g>
   <g id="xtick_3">
    <g id="line2d_4">
     <path d="M 158.574166 416.889236 
L 153.20883 419.54791 
" style="fill: none; stroke: #000000; stroke-width: 0.8; stroke-linecap: square"/>
    </g>
    <g id="text_3">
     <!-- 60000 -->
     <g transform="translate(130.744345 440.111049) scale(0.1 -0.1)">
      <defs>
       <path id="DejaVuSans-36" d="M 2113 2584 
Q 1688 2584 1439 2293 
Q 1191 2003 1191 1497 
Q 1191 994 1439 701 
Q 1688 409 2113 409 
Q 2538 409 2786 701 
Q 3034 994 3034 1497 
Q 3034 2003 2786 2293 
Q 2538 2584 2113 2584 
z
M 3366 4563 
L 3366 3988 
Q 3128 4100 2886 4159 
Q 2644 4219 2406 4219 
Q 1781 4219 1451 3797 
Q 1122 3375 1075 2522 
Q 1259 2794 1537 2939 
Q 1816 3084 2150 3084 
Q 2853 3084 3261 2657 
Q 3669 2231 3669 1497 
Q 3669 778 3244 343 
Q 2819 -91 2113 -91 
Q 1303 -91 875 529 
Q 447 1150 447 2328 
Q 447 3434 972 4092 
Q 1497 4750 2381 4750 
Q 2619 4750 2861 4703 
Q 3103 4656 3366 4563 
z
" transform="scale(0.015625)"/>
      </defs>
      <use xlink:href="#DejaVuSans-36"/>
      <use xlink:href="#DejaVuSans-30" transform="translate(63.623047 0)"/>
      <use xlink:href="#DejaVuSans-30" transform="translate(127.246094 0)"/>
      <use xlink:href="#DejaVuSans-30" transform="translate(190.869141 0)"/>
      <use xlink:href="#DejaVuSans-30" transform="translate(254.492188 0)"/>
     </g>
    </g>
   </g>
   <g id="xtick_4">
    <g id="line2d_5">
     <path d="M 202.643097 437.181314 
L 197.284937 439.919515 
" style="fill: none; stroke: #000000; stroke-width: 0.8; stroke-linecap: square"/>
    </g>
    <g id="text_4">
     <!-- 80000 -->
     <g transform="translate(174.752041 460.688898) scale(0.1 -0.1)">
      <defs>
       <path id="DejaVuSans-38" d="M 2034 2216 
Q 1584 2216 1326 1975 
Q 1069 1734 1069 1313 
Q 1069 891 1326 650 
Q 1584 409 2034 409 
Q 2484 409 2743 651 
Q 3003 894 3003 1313 
Q 3003 1734 2745 1975 
Q 2488 2216 2034 2216 
z
M 1403 2484 
Q 997 2584 770 2862 
Q 544 3141 544 3541 
Q 544 4100 942 4425 
Q 1341 4750 2034 4750 
Q 2731 4750 3128 4425 
Q 3525 4100 3525 3541 
Q 3525 3141 3298 2862 
Q 3072 2584 2669 2484 
Q 3125 2378 3379 2068 
Q 3634 1759 3634 1313 
Q 3634 634 3220 271 
Q 2806 -91 2034 -91 
Q 1263 -91 848 271 
Q 434 634 434 1313 
Q 434 1759 690 2068 
Q 947 2378 1403 2484 
z
M 1172 3481 
Q 1172 3119 1398 2916 
Q 1625 2713 2034 2713 
Q 2441 2713 2670 2916 
Q 2900 3119 2900 3481 
Q 2900 3844 2670 4047 
Q 2441 4250 2034 4250 
Q 1625 4250 1398 4047 
Q 1172 3844 1172 3481 
z
" transform="scale(0.015625)"/>
      </defs>
      <use xlink:href="#DejaVuSans-38"/>
      <use xlink:href="#DejaVuSans-30" transform="translate(63.623047 0)"/>
      <use xlink:href="#DejaVuSans-30" transform="translate(127.246094 0)"/>
      <use xlink:href="#DejaVuSans-30" transform="translate(190.869141 0)"/>
      <use xlink:href="#DejaVuSans-30" transform="translate(254.492188 0)"/>
     </g>
    </g>
   </g>
   <g id="xtick_5">
    <g id="line2d_6">
     <path d="M 248.038903 458.084368 
L 242.690791 460.905718 
" style="fill: none; stroke: #000000; stroke-width: 0.8; stroke-linecap: square"/>
    </g>
    <g id="text_5">
     <!-- 100000 -->
     <g transform="translate(216.907061 481.887984) scale(0.1 -0.1)">
      <defs>
       <path id="DejaVuSans-31" d="M 794 531 
L 1825 531 
L 1825 4091 
L 703 3866 
L 703 4441 
L 1819 4666 
L 2450 4666 
L 2450 531 
L 3481 531 
L 3481 0 
L 794 0 
L 794 531 
z
" transform="scale(0.015625)"/>
      </defs>
      <use xlink:href="#DejaVuSans-31"/>
      <use xlink:href="#DejaVuSans-30" transform="translate(63.623047 0)"/>
      <use xlink:href="#DejaVuSans-30" transform="translate(127.246094 0)"/>
      <use xlink:href="#DejaVuSans-30" transform="translate(190.869141 0)"/>
      <use xlink:href="#DejaVuSans-30" transform="translate(254.492188 0)"/>
      <use xlink:href="#DejaVuSans-30" transform="translate(318.115234 0)"/>
     </g>
    </g>
   </g>
   <g id="text_6">
    <!-- N -->
    <g transform="translate(119.428792 448.073074) scale(0.12 -0.12)">
     <defs>
      <path id="DejaVuSans-4e" d="M 628 4666 
L 1478 4666 
L 3547 763 
L 3547 4666 
L 4159 4666 
L 4159 0 
L 3309 0 
L 1241 3903 
L 1241 0 
L 628 0 
L 628 4666 
z
" transform="scale(0.015625)"/>
     </defs>
     <use xlink:href="#DejaVuSans-4e"/>
    </g>
   </g>
  </g>
  <g id="axis3d_2">
   <g id="line2d_7">
    <path d="M 466.789223 356.546684 
L 261.454709 466.029548 
" style="fill: none; stroke: #000000; stroke-width: 0.8; stroke-linecap: square"/>
   </g>
   <g id="xtick_6">
    <g id="line2d_8">
     <path d="M 271.540719 458.752778 
L 277.300266 461.385872 
" style="fill: none; stroke: #000000; stroke-width: 0.8; stroke-linecap: square"/>
    </g>
    <g id="text_7">
     <!-- 2 -->
     <g transform="translate(281.305376 482.131532) scale(0.1 -0.1)">
      <use xlink:href="#DejaVuSans-32"/>
     </g>
    </g>
   </g>
   <g id="xtick_7">
    <g id="line2d_9">
     <path d="M 464.900424 355.793453 
L 470.573358 358.055752 
" style="fill: none; stroke: #000000; stroke-width: 0.8; stroke-linecap: square"/>
    </g>
    <g id="text_8">
     <!-- 4 -->
     <g transform="translate(474.142374 377.79132) scale(0.1 -0.1)">
      <use xlink:href="#DejaVuSans-34"/>
     </g>
    </g>
   </g>
   <g id="text_9">
    <!-- num_qubits -->
    <g transform="translate(362.336994 459.450971) rotate(-28.066213) scale(0.12 -0.12)">
     <defs>
      <path id="DejaVuSans-6e" d="M 3513 2113 
L 3513 0 
L 2938 0 
L 2938 2094 
Q 2938 2591 2744 2837 
Q 2550 3084 2163 3084 
Q 1697 3084 1428 2787 
Q 1159 2491 1159 1978 
L 1159 0 
L 581 0 
L 581 3500 
L 1159 3500 
L 1159 2956 
Q 1366 3272 1645 3428 
Q 1925 3584 2291 3584 
Q 2894 3584 3203 3211 
Q 3513 2838 3513 2113 
z
" transform="scale(0.015625)"/>
      <path id="DejaVuSans-75" d="M 544 1381 
L 544 3500 
L 1119 3500 
L 1119 1403 
Q 1119 906 1312 657 
Q 1506 409 1894 409 
Q 2359 409 2629 706 
Q 2900 1003 2900 1516 
L 2900 3500 
L 3475 3500 
L 3475 0 
L 2900 0 
L 2900 538 
Q 2691 219 2414 64 
Q 2138 -91 1772 -91 
Q 1169 -91 856 284 
Q 544 659 544 1381 
z
M 1991 3584 
L 1991 3584 
z
" transform="scale(0.015625)"/>
      <path id="DejaVuSans-6d" d="M 3328 2828 
Q 3544 3216 3844 3400 
Q 4144 3584 4550 3584 
Q 5097 3584 5394 3201 
Q 5691 2819 5691 2113 
L 5691 0 
L 5113 0 
L 5113 2094 
Q 5113 2597 4934 2840 
Q 4756 3084 4391 3084 
Q 3944 3084 3684 2787 
Q 3425 2491 3425 1978 
L 3425 0 
L 2847 0 
L 2847 2094 
Q 2847 2600 2669 2842 
Q 2491 3084 2119 3084 
Q 1678 3084 1418 2786 
Q 1159 2488 1159 1978 
L 1159 0 
L 581 0 
L 581 3500 
L 1159 3500 
L 1159 2956 
Q 1356 3278 1631 3431 
Q 1906 3584 2284 3584 
Q 2666 3584 2933 3390 
Q 3200 3197 3328 2828 
z
" transform="scale(0.015625)"/>
      <path id="DejaVuSans-5f" d="M 3263 -1063 
L 3263 -1509 
L -63 -1509 
L -63 -1063 
L 3263 -1063 
z
" transform="scale(0.015625)"/>
      <path id="DejaVuSans-71" d="M 947 1747 
Q 947 1113 1208 752 
Q 1469 391 1925 391 
Q 2381 391 2643 752 
Q 2906 1113 2906 1747 
Q 2906 2381 2643 2742 
Q 2381 3103 1925 3103 
Q 1469 3103 1208 2742 
Q 947 2381 947 1747 
z
M 2906 525 
Q 2725 213 2448 61 
Q 2172 -91 1784 -91 
Q 1150 -91 751 415 
Q 353 922 353 1747 
Q 353 2572 751 3078 
Q 1150 3584 1784 3584 
Q 2172 3584 2448 3432 
Q 2725 3281 2906 2969 
L 2906 3500 
L 3481 3500 
L 3481 -1331 
L 2906 -1331 
L 2906 525 
z
" transform="scale(0.015625)"/>
      <path id="DejaVuSans-62" d="M 3116 1747 
Q 3116 2381 2855 2742 
Q 2594 3103 2138 3103 
Q 1681 3103 1420 2742 
Q 1159 2381 1159 1747 
Q 1159 1113 1420 752 
Q 1681 391 2138 391 
Q 2594 391 2855 752 
Q 3116 1113 3116 1747 
z
M 1159 2969 
Q 1341 3281 1617 3432 
Q 1894 3584 2278 3584 
Q 2916 3584 3314 3078 
Q 3713 2572 3713 1747 
Q 3713 922 3314 415 
Q 2916 -91 2278 -91 
Q 1894 -91 1617 61 
Q 1341 213 1159 525 
L 1159 0 
L 581 0 
L 581 4863 
L 1159 4863 
L 1159 2969 
z
" transform="scale(0.015625)"/>
      <path id="DejaVuSans-69" d="M 603 3500 
L 1178 3500 
L 1178 0 
L 603 0 
L 603 3500 
z
M 603 4863 
L 1178 4863 
L 1178 4134 
L 603 4134 
L 603 4863 
z
" transform="scale(0.015625)"/>
      <path id="DejaVuSans-74" d="M 1172 4494 
L 1172 3500 
L 2356 3500 
L 2356 3053 
L 1172 3053 
L 1172 1153 
Q 1172 725 1289 603 
Q 1406 481 1766 481 
L 2356 481 
L 2356 0 
L 1766 0 
Q 1100 0 847 248 
Q 594 497 594 1153 
L 594 3053 
L 172 3053 
L 172 3500 
L 594 3500 
L 594 4494 
L 1172 4494 
z
" transform="scale(0.015625)"/>
      <path id="DejaVuSans-73" d="M 2834 3397 
L 2834 2853 
Q 2591 2978 2328 3040 
Q 2066 3103 1784 3103 
Q 1356 3103 1142 2972 
Q 928 2841 928 2578 
Q 928 2378 1081 2264 
Q 1234 2150 1697 2047 
L 1894 2003 
Q 2506 1872 2764 1633 
Q 3022 1394 3022 966 
Q 3022 478 2636 193 
Q 2250 -91 1575 -91 
Q 1294 -91 989 -36 
Q 684 19 347 128 
L 347 722 
Q 666 556 975 473 
Q 1284 391 1588 391 
Q 1994 391 2212 530 
Q 2431 669 2431 922 
Q 2431 1156 2273 1281 
Q 2116 1406 1581 1522 
L 1381 1569 
Q 847 1681 609 1914 
Q 372 2147 372 2553 
Q 372 3047 722 3315 
Q 1072 3584 1716 3584 
Q 2034 3584 2315 3537 
Q 2597 3491 2834 3397 
z
" transform="scale(0.015625)"/>
     </defs>
     <use xlink:href="#DejaVuSans-6e"/>
     <use xlink:href="#DejaVuSans-75" transform="translate(63.378906 0)"/>
     <use xlink:href="#DejaVuSans-6d" transform="translate(126.757812 0)"/>
     <use xlink:href="#DejaVuSans-5f" transform="translate(224.169922 0)"/>
     <use xlink:href="#DejaVuSans-71" transform="translate(274.169922 0)"/>
     <use xlink:href="#DejaVuSans-75" transform="translate(337.646484 0)"/>
     <use xlink:href="#DejaVuSans-62" transform="translate(401.025391 0)"/>
     <use xlink:href="#DejaVuSans-69" transform="translate(464.501953 0)"/>
     <use xlink:href="#DejaVuSans-74" transform="translate(492.285156 0)"/>
     <use xlink:href="#DejaVuSans-73" transform="translate(531.494141 0)"/>
    </g>
   </g>
  </g>
  <g id="axis3d_3">
   <g id="line2d_10">
    <path d="M 466.789223 356.546684 
L 474.974659 147.215617 
" style="fill: none; stroke: #000000; stroke-width: 0.8; stroke-linecap: square"/>
   </g>
   <g id="xtick_8">
    <g id="line2d_11">
     <path d="M 464.955403 354.374712 
L 470.629908 356.635145 
" style="fill: none; stroke: #000000; stroke-width: 0.8; stroke-linecap: square"/>
    </g>
    <g id="text_10">
     <!-- 0.00 -->
     <g transform="translate(475.31942 362.412086) scale(0.1 -0.1)">
      <defs>
       <path id="DejaVuSans-2e" d="M 684 794 
L 1344 794 
L 1344 0 
L 684 0 
L 684 794 
z
" transform="scale(0.015625)"/>
      </defs>
      <use xlink:href="#DejaVuSans-30"/>
      <use xlink:href="#DejaVuSans-2e" transform="translate(63.623047 0)"/>
      <use xlink:href="#DejaVuSans-30" transform="translate(95.410156 0)"/>
      <use xlink:href="#DejaVuSans-30" transform="translate(159.033203 0)"/>
     </g>
    </g>
   </g>
   <g id="xtick_9">
    <g id="line2d_12">
     <path d="M 465.802656 332.510894 
L 471.501397 334.742391 
" style="fill: none; stroke: #000000; stroke-width: 0.8; stroke-linecap: square"/>
    </g>
    <g id="text_11">
     <!-- 0.25 -->
     <g transform="translate(476.253072 340.542646) scale(0.1 -0.1)">
      <defs>
       <path id="DejaVuSans-35" d="M 691 4666 
L 3169 4666 
L 3169 4134 
L 1269 4134 
L 1269 2991 
Q 1406 3038 1543 3061 
Q 1681 3084 1819 3084 
Q 2600 3084 3056 2656 
Q 3513 2228 3513 1497 
Q 3513 744 3044 326 
Q 2575 -91 1722 -91 
Q 1428 -91 1123 -41 
Q 819 9 494 109 
L 494 744 
Q 775 591 1075 516 
Q 1375 441 1709 441 
Q 2250 441 2565 725 
Q 2881 1009 2881 1497 
Q 2881 1984 2565 2268 
Q 2250 2553 1709 2553 
Q 1456 2553 1204 2497 
Q 953 2441 691 2322 
L 691 4666 
z
" transform="scale(0.015625)"/>
      </defs>
      <use xlink:href="#DejaVuSans-30"/>
      <use xlink:href="#DejaVuSans-2e" transform="translate(63.623047 0)"/>
      <use xlink:href="#DejaVuSans-32" transform="translate(95.410156 0)"/>
      <use xlink:href="#DejaVuSans-35" transform="translate(159.033203 0)"/>
     </g>
    </g>
   </g>
   <g id="xtick_10">
    <g id="line2d_13">
     <path d="M 466.656722 310.471266 
L 472.379906 312.673287 
" style="fill: none; stroke: #000000; stroke-width: 0.8; stroke-linecap: square"/>
    </g>
    <g id="text_12">
     <!-- 0.50 -->
     <g transform="translate(477.194234 318.497292) scale(0.1 -0.1)">
      <use xlink:href="#DejaVuSans-30"/>
      <use xlink:href="#DejaVuSans-2e" transform="translate(63.623047 0)"/>
      <use xlink:href="#DejaVuSans-35" transform="translate(95.410156 0)"/>
      <use xlink:href="#DejaVuSans-30" transform="translate(159.033203 0)"/>
     </g>
    </g>
   </g>
   <g id="xtick_11">
    <g id="line2d_14">
     <path d="M 467.517684 288.253699 
L 473.26552 290.425694 
" style="fill: none; stroke: #000000; stroke-width: 0.8; stroke-linecap: square"/>
    </g>
    <g id="text_13">
     <!-- 0.75 -->
     <g transform="translate(478.142997 296.273892) scale(0.1 -0.1)">
      <defs>
       <path id="DejaVuSans-37" d="M 525 4666 
L 3525 4666 
L 3525 4397 
L 1831 0 
L 1172 0 
L 2766 4134 
L 525 4134 
L 525 4666 
z
" transform="scale(0.015625)"/>
      </defs>
      <use xlink:href="#DejaVuSans-30"/>
      <use xlink:href="#DejaVuSans-2e" transform="translate(63.623047 0)"/>
      <use xlink:href="#DejaVuSans-37" transform="translate(95.410156 0)"/>
      <use xlink:href="#DejaVuSans-35" transform="translate(159.033203 0)"/>
     </g>
    </g>
   </g>
   <g id="xtick_12">
    <g id="line2d_15">
     <path d="M 468.385625 265.856029 
L 474.158326 267.997438 
" style="fill: none; stroke: #000000; stroke-width: 0.8; stroke-linecap: square"/>
    </g>
    <g id="text_14">
     <!-- 1.00 -->
     <g transform="translate(479.099454 273.870281) scale(0.1 -0.1)">
      <use xlink:href="#DejaVuSans-31"/>
      <use xlink:href="#DejaVuSans-2e" transform="translate(63.623047 0)"/>
      <use xlink:href="#DejaVuSans-30" transform="translate(95.410156 0)"/>
      <use xlink:href="#DejaVuSans-30" transform="translate(159.033203 0)"/>
     </g>
    </g>
   </g>
   <g id="xtick_13">
    <g id="line2d_16">
     <path d="M 469.26063 243.276057 
L 475.058411 245.386309 
" style="fill: none; stroke: #000000; stroke-width: 0.8; stroke-linecap: square"/>
    </g>
    <g id="text_15">
     <!-- 1.25 -->
     <g transform="translate(480.063699 251.284256) scale(0.1 -0.1)">
      <use xlink:href="#DejaVuSans-31"/>
      <use xlink:href="#DejaVuSans-2e" transform="translate(63.623047 0)"/>
      <use xlink:href="#DejaVuSans-32" transform="translate(95.410156 0)"/>
      <use xlink:href="#DejaVuSans-35" transform="translate(159.033203 0)"/>
     </g>
    </g>
   </g>
   <g id="xtick_14">
    <g id="line2d_17">
     <path d="M 470.142787 220.511549 
L 475.965866 222.590061 
" style="fill: none; stroke: #000000; stroke-width: 0.8; stroke-linecap: square"/>
    </g>
    <g id="text_16">
     <!-- 1.50 -->
     <g transform="translate(481.035826 228.513583) scale(0.1 -0.1)">
      <use xlink:href="#DejaVuSans-31"/>
      <use xlink:href="#DejaVuSans-2e" transform="translate(63.623047 0)"/>
      <use xlink:href="#DejaVuSans-35" transform="translate(95.410156 0)"/>
      <use xlink:href="#DejaVuSans-30" transform="translate(159.033203 0)"/>
     </g>
    </g>
   </g>
   <g id="xtick_15">
    <g id="line2d_18">
     <path d="M 471.032182 197.560233 
L 476.880781 199.606411 
" style="fill: none; stroke: #000000; stroke-width: 0.8; stroke-linecap: square"/>
    </g>
    <g id="text_17">
     <!-- 1.75 -->
     <g transform="translate(482.015933 205.555986) scale(0.1 -0.1)">
      <use xlink:href="#DejaVuSans-31"/>
      <use xlink:href="#DejaVuSans-2e" transform="translate(63.623047 0)"/>
      <use xlink:href="#DejaVuSans-37" transform="translate(95.410156 0)"/>
      <use xlink:href="#DejaVuSans-35" transform="translate(159.033203 0)"/>
     </g>
    </g>
   </g>
   <g id="xtick_16">
    <g id="line2d_19">
     <path d="M 471.928907 174.419801 
L 477.803247 176.43304 
" style="fill: none; stroke: #000000; stroke-width: 0.8; stroke-linecap: square"/>
    </g>
    <g id="text_18">
     <!-- 2.00 -->
     <g transform="translate(483.00412 182.409155) scale(0.1 -0.1)">
      <use xlink:href="#DejaVuSans-32"/>
      <use xlink:href="#DejaVuSans-2e" transform="translate(63.623047 0)"/>
      <use xlink:href="#DejaVuSans-30" transform="translate(95.410156 0)"/>
      <use xlink:href="#DejaVuSans-30" transform="translate(159.033203 0)"/>
     </g>
    </g>
   </g>
   <g id="xtick_17">
    <g id="line2d_20">
     <path d="M 472.83305 151.087904 
L 478.73336 153.067587 
" style="fill: none; stroke: #000000; stroke-width: 0.8; stroke-linecap: square"/>
    </g>
    <g id="text_19">
     <!-- 2.25 -->
     <g transform="translate(484.000485 159.070741) scale(0.1 -0.1)">
      <use xlink:href="#DejaVuSans-32"/>
      <use xlink:href="#DejaVuSans-2e" transform="translate(63.623047 0)"/>
      <use xlink:href="#DejaVuSans-32" transform="translate(95.410156 0)"/>
      <use xlink:href="#DejaVuSans-35" transform="translate(159.033203 0)"/>
     </g>
    </g>
   </g>
   <g id="text_20">
    <!-- RMSE -->
    <g transform="translate(517.517215 270.15635) rotate(-90) scale(0.12 -0.12)">
     <defs>
      <path id="DejaVuSans-52" d="M 2841 2188 
Q 3044 2119 3236 1894 
Q 3428 1669 3622 1275 
L 4263 0 
L 3584 0 
L 2988 1197 
Q 2756 1666 2539 1819 
Q 2322 1972 1947 1972 
L 1259 1972 
L 1259 0 
L 628 0 
L 628 4666 
L 2053 4666 
Q 2853 4666 3247 4331 
Q 3641 3997 3641 3322 
Q 3641 2881 3436 2590 
Q 3231 2300 2841 2188 
z
M 1259 4147 
L 1259 2491 
L 2053 2491 
Q 2509 2491 2742 2702 
Q 2975 2913 2975 3322 
Q 2975 3731 2742 3939 
Q 2509 4147 2053 4147 
L 1259 4147 
z
" transform="scale(0.015625)"/>
      <path id="DejaVuSans-4d" d="M 628 4666 
L 1569 4666 
L 2759 1491 
L 3956 4666 
L 4897 4666 
L 4897 0 
L 4281 0 
L 4281 4097 
L 3078 897 
L 2444 897 
L 1241 4097 
L 1241 0 
L 628 0 
L 628 4666 
z
" transform="scale(0.015625)"/>
      <path id="DejaVuSans-53" d="M 3425 4513 
L 3425 3897 
Q 3066 4069 2747 4153 
Q 2428 4238 2131 4238 
Q 1616 4238 1336 4038 
Q 1056 3838 1056 3469 
Q 1056 3159 1242 3001 
Q 1428 2844 1947 2747 
L 2328 2669 
Q 3034 2534 3370 2195 
Q 3706 1856 3706 1288 
Q 3706 609 3251 259 
Q 2797 -91 1919 -91 
Q 1588 -91 1214 -16 
Q 841 59 441 206 
L 441 856 
Q 825 641 1194 531 
Q 1563 422 1919 422 
Q 2459 422 2753 634 
Q 3047 847 3047 1241 
Q 3047 1584 2836 1778 
Q 2625 1972 2144 2069 
L 1759 2144 
Q 1053 2284 737 2584 
Q 422 2884 422 3419 
Q 422 4038 858 4394 
Q 1294 4750 2059 4750 
Q 2388 4750 2728 4690 
Q 3069 4631 3425 4513 
z
" transform="scale(0.015625)"/>
      <path id="DejaVuSans-45" d="M 628 4666 
L 3578 4666 
L 3578 4134 
L 1259 4134 
L 1259 2753 
L 3481 2753 
L 3481 2222 
L 1259 2222 
L 1259 531 
L 3634 531 
L 3634 0 
L 628 0 
L 628 4666 
z
" transform="scale(0.015625)"/>
     </defs>
     <use xlink:href="#DejaVuSans-52"/>
     <use xlink:href="#DejaVuSans-4d" transform="translate(69.482422 0)"/>
     <use xlink:href="#DejaVuSans-53" transform="translate(155.761719 0)"/>
     <use xlink:href="#DejaVuSans-45" transform="translate(219.238281 0)"/>
    </g>
   </g>
  </g>
  <g id="axes_1">
   <g id="line2d_21">
    <path d="M 62.453033 315.896517 
L 83.720135 349.0018 
L 104.436575 357.861297 
L 125.564598 371.511735 
L 146.996022 386.867097 
L 168.552988 393.381358 
L 190.519081 405.640736 
L 212.769246 415.14721 
L 235.35378 424.061952 
L 258.284566 438.106975 
" clip-path="url(#p7605f718b2)" style="fill: none; stroke: #8ecfc9; stroke-width: 2; stroke-linecap: square"/>
    <defs>
     <path id="meec96040db" d="M 0 5 
C 1.326016 5 2.597899 4.473168 3.535534 3.535534 
C 4.473168 2.597899 5 1.326016 5 0 
C 5 -1.326016 4.473168 -2.597899 3.535534 -3.535534 
C 2.597899 -4.473168 1.326016 -5 0 -5 
C -1.326016 -5 -2.597899 -4.473168 -3.535534 -3.535534 
C -4.473168 -2.597899 -5 -1.326016 -5 0 
C -5 1.326016 -4.473168 2.597899 -3.535534 3.535534 
C -2.597899 4.473168 -1.326016 5 0 5 
z
" style="stroke: #8ecfc9"/>
    </defs>
    <g clip-path="url(#p7605f718b2)">
     <use xlink:href="#meec96040db" x="62.453033" y="315.896517" style="fill: #8ecfc9; stroke: #8ecfc9"/>
     <use xlink:href="#meec96040db" x="83.720135" y="349.0018" style="fill: #8ecfc9; stroke: #8ecfc9"/>
     <use xlink:href="#meec96040db" x="104.436575" y="357.861297" style="fill: #8ecfc9; stroke: #8ecfc9"/>
     <use xlink:href="#meec96040db" x="125.564598" y="371.511735" style="fill: #8ecfc9; stroke: #8ecfc9"/>
     <use xlink:href="#meec96040db" x="146.996022" y="386.867097" style="fill: #8ecfc9; stroke: #8ecfc9"/>
     <use xlink:href="#meec96040db" x="168.552988" y="393.381358" style="fill: #8ecfc9; stroke: #8ecfc9"/>
     <use xlink:href="#meec96040db" x="190.519081" y="405.640736" style="fill: #8ecfc9; stroke: #8ecfc9"/>
     <use xlink:href="#meec96040db" x="212.769246" y="415.14721" style="fill: #8ecfc9; stroke: #8ecfc9"/>
     <use xlink:href="#meec96040db" x="235.35378" y="424.061952" style="fill: #8ecfc9; stroke: #8ecfc9"/>
     <use xlink:href="#meec96040db" x="258.284566" y="438.106975" style="fill: #8ecfc9; stroke: #8ecfc9"/>
    </g>
   </g>
   <g id="line2d_22">
    <path d="M 56.970818 158.017787 
L 79.797459 222.63998 
L 101.950505 266.786043 
L 123.17103 269.585971 
L 145.917675 331.852524 
L 167.677616 337.43992 
L 189.947715 356.478803 
L 212.38682 364.302816 
L 235.159496 365.962321 
L 258.328702 389.743468 
" clip-path="url(#p7605f718b2)" style="fill: none; stroke: #96c37d; stroke-width: 2; stroke-linecap: square"/>
    <defs>
     <path id="m280a58c26e" d="M 0 -5 
L -5 5 
L 5 5 
z
" style="stroke: #96c37d; stroke-linejoin: miter"/>
    </defs>
    <g clip-path="url(#p7605f718b2)">
     <use xlink:href="#m280a58c26e" x="56.970818" y="158.017787" style="fill: #96c37d; stroke: #96c37d; stroke-linejoin: miter"/>
     <use xlink:href="#m280a58c26e" x="79.797459" y="222.63998" style="fill: #96c37d; stroke: #96c37d; stroke-linejoin: miter"/>
     <use xlink:href="#m280a58c26e" x="101.950505" y="266.786043" style="fill: #96c37d; stroke: #96c37d; stroke-linejoin: miter"/>
     <use xlink:href="#m280a58c26e" x="123.17103" y="269.585971" style="fill: #96c37d; stroke: #96c37d; stroke-linejoin: miter"/>
     <use xlink:href="#m280a58c26e" x="145.917675" y="331.852524" style="fill: #96c37d; stroke: #96c37d; stroke-linejoin: miter"/>
     <use xlink:href="#m280a58c26e" x="167.677616" y="337.43992" style="fill: #96c37d; stroke: #96c37d; stroke-linejoin: miter"/>
     <use xlink:href="#m280a58c26e" x="189.947715" y="356.478803" style="fill: #96c37d; stroke: #96c37d; stroke-linejoin: miter"/>
     <use xlink:href="#m280a58c26e" x="212.38682" y="364.302816" style="fill: #96c37d; stroke: #96c37d; stroke-linejoin: miter"/>
     <use xlink:href="#m280a58c26e" x="235.159496" y="365.962321" style="fill: #96c37d; stroke: #96c37d; stroke-linejoin: miter"/>
     <use xlink:href="#m280a58c26e" x="258.328702" y="389.743468" style="fill: #96c37d; stroke: #96c37d; stroke-linejoin: miter"/>
    </g>
   </g>
   <g id="line2d_23">
    <path d="M 63.730361 352.681435 
L 84.225423 365.278714 
L 104.936606 376.179557 
L 125.90236 385.894741 
L 147.178913 396.19773 
L 168.764817 406.918555 
L 190.647695 416.707095 
L 212.859804 427.187173 
L 235.399487 437.73045 
L 258.275145 448.430885 
" clip-path="url(#p7605f718b2)" style="fill: none; stroke: #f28080; stroke-width: 2; stroke-linecap: square"/>
    <defs>
     <path id="m7afe2f9981" d="M -5 5 
L 5 5 
L 5 -5 
L -5 -5 
z
" style="stroke: #f28080; stroke-linejoin: miter"/>
    </defs>
    <g clip-path="url(#p7605f718b2)">
     <use xlink:href="#m7afe2f9981" x="63.730361" y="352.681435" style="fill: #f28080; stroke: #f28080; stroke-linejoin: miter"/>
     <use xlink:href="#m7afe2f9981" x="84.225423" y="365.278714" style="fill: #f28080; stroke: #f28080; stroke-linejoin: miter"/>
     <use xlink:href="#m7afe2f9981" x="104.936606" y="376.179557" style="fill: #f28080; stroke: #f28080; stroke-linejoin: miter"/>
     <use xlink:href="#m7afe2f9981" x="125.90236" y="385.894741" style="fill: #f28080; stroke: #f28080; stroke-linejoin: miter"/>
     <use xlink:href="#m7afe2f9981" x="147.178913" y="396.19773" style="fill: #f28080; stroke: #f28080; stroke-linejoin: miter"/>
     <use xlink:href="#m7afe2f9981" x="168.764817" y="406.918555" style="fill: #f28080; stroke: #f28080; stroke-linejoin: miter"/>
     <use xlink:href="#m7afe2f9981" x="190.647695" y="416.707095" style="fill: #f28080; stroke: #f28080; stroke-linejoin: miter"/>
     <use xlink:href="#m7afe2f9981" x="212.859804" y="427.187173" style="fill: #f28080; stroke: #f28080; stroke-linejoin: miter"/>
     <use xlink:href="#m7afe2f9981" x="235.399487" y="437.73045" style="fill: #f28080; stroke: #f28080; stroke-linejoin: miter"/>
     <use xlink:href="#m7afe2f9981" x="258.275145" y="448.430885" style="fill: #f28080; stroke: #f28080; stroke-linejoin: miter"/>
    </g>
   </g>
   <g id="line2d_24">
    <path d="M 63.507452 346.262038 
L 84.022572 358.744233 
L 104.759795 369.702222 
L 125.74524 379.204052 
L 147.043564 389.29256 
L 168.646323 399.346066 
L 190.560253 409.183274 
L 212.801536 419.440332 
L 235.372214 429.574395 
L 258.282881 439.953443 
" clip-path="url(#p7605f718b2)" style="fill: none; stroke: #fea040; stroke-width: 2; stroke-linecap: square"/>
    <defs>
     <path id="mf117ed28da" d="M 0 7.071068 
L 7.071068 0 
L 0 -7.071068 
L -7.071068 0 
z
" style="stroke: #fea040; stroke-linejoin: miter"/>
    </defs>
    <g clip-path="url(#p7605f718b2)">
     <use xlink:href="#mf117ed28da" x="63.507452" y="346.262038" style="fill: #fea040; stroke: #fea040; stroke-linejoin: miter"/>
     <use xlink:href="#mf117ed28da" x="84.022572" y="358.744233" style="fill: #fea040; stroke: #fea040; stroke-linejoin: miter"/>
     <use xlink:href="#mf117ed28da" x="104.759795" y="369.702222" style="fill: #fea040; stroke: #fea040; stroke-linejoin: miter"/>
     <use xlink:href="#mf117ed28da" x="125.74524" y="379.204052" style="fill: #fea040; stroke: #fea040; stroke-linejoin: miter"/>
     <use xlink:href="#mf117ed28da" x="147.043564" y="389.29256" style="fill: #fea040; stroke: #fea040; stroke-linejoin: miter"/>
     <use xlink:href="#mf117ed28da" x="168.646323" y="399.346066" style="fill: #fea040; stroke: #fea040; stroke-linejoin: miter"/>
     <use xlink:href="#mf117ed28da" x="190.560253" y="409.183274" style="fill: #fea040; stroke: #fea040; stroke-linejoin: miter"/>
     <use xlink:href="#mf117ed28da" x="212.801536" y="419.440332" style="fill: #fea040; stroke: #fea040; stroke-linejoin: miter"/>
     <use xlink:href="#mf117ed28da" x="235.372214" y="429.574395" style="fill: #fea040; stroke: #fea040; stroke-linejoin: miter"/>
     <use xlink:href="#mf117ed28da" x="258.282881" y="439.953443" style="fill: #fea040; stroke: #fea040; stroke-linejoin: miter"/>
    </g>
   </g>
   <g id="text_21">
    <!-- 2 Qubits -->
    <g transform="translate(217.495625 17.837812) scale(0.14 -0.14)">
     <defs>
      <path id="DejaVuSans-20" transform="scale(0.015625)"/>
      <path id="DejaVuSans-51" d="M 2522 4238 
Q 1834 4238 1429 3725 
Q 1025 3213 1025 2328 
Q 1025 1447 1429 934 
Q 1834 422 2522 422 
Q 3209 422 3611 934 
Q 4013 1447 4013 2328 
Q 4013 3213 3611 3725 
Q 3209 4238 2522 4238 
z
M 3406 84 
L 4238 -825 
L 3475 -825 
L 2784 -78 
Q 2681 -84 2626 -87 
Q 2572 -91 2522 -91 
Q 1538 -91 948 567 
Q 359 1225 359 2328 
Q 359 3434 948 4092 
Q 1538 4750 2522 4750 
Q 3503 4750 4090 4092 
Q 4678 3434 4678 2328 
Q 4678 1516 4351 937 
Q 4025 359 3406 84 
z
" transform="scale(0.015625)"/>
     </defs>
     <use xlink:href="#DejaVuSans-32"/>
     <use xlink:href="#DejaVuSans-20" transform="translate(63.623047 0)"/>
     <use xlink:href="#DejaVuSans-51" transform="translate(95.410156 0)"/>
     <use xlink:href="#DejaVuSans-75" transform="translate(174.121094 0)"/>
     <use xlink:href="#DejaVuSans-62" transform="translate(237.5 0)"/>
     <use xlink:href="#DejaVuSans-69" transform="translate(300.976562 0)"/>
     <use xlink:href="#DejaVuSans-74" transform="translate(328.759766 0)"/>
     <use xlink:href="#DejaVuSans-73" transform="translate(367.96875 0)"/>
    </g>
   </g>
   <g id="legend_1">
    <g id="patch_6">
     <path d="M 386.632813 91.106562 
L 479.6 91.106562 
Q 481.6 91.106562 481.6 89.106562 
L 481.6 30.837812 
Q 481.6 28.837812 479.6 28.837812 
L 386.632813 28.837812 
Q 384.632813 28.837812 384.632813 30.837812 
L 384.632813 89.106562 
Q 384.632813 91.106562 386.632813 91.106562 
z
" style="fill: #ffffff; opacity: 0.8; stroke: #cccccc; stroke-linejoin: miter"/>
    </g>
    <g id="line2d_25">
     <path d="M 388.632813 36.93625 
L 398.632813 36.93625 
L 408.632813 36.93625 
" style="fill: none; stroke: #8ecfc9; stroke-width: 2; stroke-linecap: square"/>
     <g>
      <use xlink:href="#meec96040db" x="398.632813" y="36.93625" style="fill: #8ecfc9; stroke: #8ecfc9"/>
     </g>
    </g>
    <g id="text_22">
     <!-- qpt_single -->
     <g transform="translate(416.632813 40.43625) scale(0.1 -0.1)">
      <defs>
       <path id="DejaVuSans-70" d="M 1159 525 
L 1159 -1331 
L 581 -1331 
L 581 3500 
L 1159 3500 
L 1159 2969 
Q 1341 3281 1617 3432 
Q 1894 3584 2278 3584 
Q 2916 3584 3314 3078 
Q 3713 2572 3713 1747 
Q 3713 922 3314 415 
Q 2916 -91 2278 -91 
Q 1894 -91 1617 61 
Q 1341 213 1159 525 
z
M 3116 1747 
Q 3116 2381 2855 2742 
Q 2594 3103 2138 3103 
Q 1681 3103 1420 2742 
Q 1159 2381 1159 1747 
Q 1159 1113 1420 752 
Q 1681 391 2138 391 
Q 2594 391 2855 752 
Q 3116 1113 3116 1747 
z
" transform="scale(0.015625)"/>
       <path id="DejaVuSans-67" d="M 2906 1791 
Q 2906 2416 2648 2759 
Q 2391 3103 1925 3103 
Q 1463 3103 1205 2759 
Q 947 2416 947 1791 
Q 947 1169 1205 825 
Q 1463 481 1925 481 
Q 2391 481 2648 825 
Q 2906 1169 2906 1791 
z
M 3481 434 
Q 3481 -459 3084 -895 
Q 2688 -1331 1869 -1331 
Q 1566 -1331 1297 -1286 
Q 1028 -1241 775 -1147 
L 775 -588 
Q 1028 -725 1275 -790 
Q 1522 -856 1778 -856 
Q 2344 -856 2625 -561 
Q 2906 -266 2906 331 
L 2906 616 
Q 2728 306 2450 153 
Q 2172 0 1784 0 
Q 1141 0 747 490 
Q 353 981 353 1791 
Q 353 2603 747 3093 
Q 1141 3584 1784 3584 
Q 2172 3584 2450 3431 
Q 2728 3278 2906 2969 
L 2906 3500 
L 3481 3500 
L 3481 434 
z
" transform="scale(0.015625)"/>
       <path id="DejaVuSans-6c" d="M 603 4863 
L 1178 4863 
L 1178 0 
L 603 0 
L 603 4863 
z
" transform="scale(0.015625)"/>
       <path id="DejaVuSans-65" d="M 3597 1894 
L 3597 1613 
L 953 1613 
Q 991 1019 1311 708 
Q 1631 397 2203 397 
Q 2534 397 2845 478 
Q 3156 559 3463 722 
L 3463 178 
Q 3153 47 2828 -22 
Q 2503 -91 2169 -91 
Q 1331 -91 842 396 
Q 353 884 353 1716 
Q 353 2575 817 3079 
Q 1281 3584 2069 3584 
Q 2775 3584 3186 3129 
Q 3597 2675 3597 1894 
z
M 3022 2063 
Q 3016 2534 2758 2815 
Q 2500 3097 2075 3097 
Q 1594 3097 1305 2825 
Q 1016 2553 972 2059 
L 3022 2063 
z
" transform="scale(0.015625)"/>
      </defs>
      <use xlink:href="#DejaVuSans-71"/>
      <use xlink:href="#DejaVuSans-70" transform="translate(63.476562 0)"/>
      <use xlink:href="#DejaVuSans-74" transform="translate(126.953125 0)"/>
      <use xlink:href="#DejaVuSans-5f" transform="translate(166.162109 0)"/>
      <use xlink:href="#DejaVuSans-73" transform="translate(216.162109 0)"/>
      <use xlink:href="#DejaVuSans-69" transform="translate(268.261719 0)"/>
      <use xlink:href="#DejaVuSans-6e" transform="translate(296.044922 0)"/>
      <use xlink:href="#DejaVuSans-67" transform="translate(359.423828 0)"/>
      <use xlink:href="#DejaVuSans-6c" transform="translate(422.900391 0)"/>
      <use xlink:href="#DejaVuSans-65" transform="translate(450.683594 0)"/>
     </g>
    </g>
    <g id="line2d_26">
     <path d="M 388.632813 51.8925 
L 398.632813 51.8925 
L 408.632813 51.8925 
" style="fill: none; stroke: #96c37d; stroke-width: 2; stroke-linecap: square"/>
     <g>
      <use xlink:href="#m280a58c26e" x="398.632813" y="51.8925" style="fill: #96c37d; stroke: #96c37d; stroke-linejoin: miter"/>
     </g>
    </g>
    <g id="text_23">
     <!-- qpt_com -->
     <g transform="translate(416.632813 55.3925) scale(0.1 -0.1)">
      <defs>
       <path id="DejaVuSans-63" d="M 3122 3366 
L 3122 2828 
Q 2878 2963 2633 3030 
Q 2388 3097 2138 3097 
Q 1578 3097 1268 2742 
Q 959 2388 959 1747 
Q 959 1106 1268 751 
Q 1578 397 2138 397 
Q 2388 397 2633 464 
Q 2878 531 3122 666 
L 3122 134 
Q 2881 22 2623 -34 
Q 2366 -91 2075 -91 
Q 1284 -91 818 406 
Q 353 903 353 1747 
Q 353 2603 823 3093 
Q 1294 3584 2113 3584 
Q 2378 3584 2631 3529 
Q 2884 3475 3122 3366 
z
" transform="scale(0.015625)"/>
       <path id="DejaVuSans-6f" d="M 1959 3097 
Q 1497 3097 1228 2736 
Q 959 2375 959 1747 
Q 959 1119 1226 758 
Q 1494 397 1959 397 
Q 2419 397 2687 759 
Q 2956 1122 2956 1747 
Q 2956 2369 2687 2733 
Q 2419 3097 1959 3097 
z
M 1959 3584 
Q 2709 3584 3137 3096 
Q 3566 2609 3566 1747 
Q 3566 888 3137 398 
Q 2709 -91 1959 -91 
Q 1206 -91 779 398 
Q 353 888 353 1747 
Q 353 2609 779 3096 
Q 1206 3584 1959 3584 
z
" transform="scale(0.015625)"/>
      </defs>
      <use xlink:href="#DejaVuSans-71"/>
      <use xlink:href="#DejaVuSans-70" transform="translate(63.476562 0)"/>
      <use xlink:href="#DejaVuSans-74" transform="translate(126.953125 0)"/>
      <use xlink:href="#DejaVuSans-5f" transform="translate(166.162109 0)"/>
      <use xlink:href="#DejaVuSans-63" transform="translate(216.162109 0)"/>
      <use xlink:href="#DejaVuSans-6f" transform="translate(271.142578 0)"/>
      <use xlink:href="#DejaVuSans-6d" transform="translate(332.324219 0)"/>
     </g>
    </g>
    <g id="line2d_27">
     <path d="M 388.632813 66.84875 
L 398.632813 66.84875 
L 408.632813 66.84875 
" style="fill: none; stroke: #f28080; stroke-width: 2; stroke-linecap: square"/>
     <g>
      <use xlink:href="#m7afe2f9981" x="398.632813" y="66.84875" style="fill: #f28080; stroke: #f28080; stroke-linejoin: miter"/>
     </g>
    </g>
    <g id="text_24">
     <!-- dagger -->
     <g transform="translate(416.632813 70.34875) scale(0.1 -0.1)">
      <defs>
       <path id="DejaVuSans-64" d="M 2906 2969 
L 2906 4863 
L 3481 4863 
L 3481 0 
L 2906 0 
L 2906 525 
Q 2725 213 2448 61 
Q 2172 -91 1784 -91 
Q 1150 -91 751 415 
Q 353 922 353 1747 
Q 353 2572 751 3078 
Q 1150 3584 1784 3584 
Q 2172 3584 2448 3432 
Q 2725 3281 2906 2969 
z
M 947 1747 
Q 947 1113 1208 752 
Q 1469 391 1925 391 
Q 2381 391 2643 752 
Q 2906 1113 2906 1747 
Q 2906 2381 2643 2742 
Q 2381 3103 1925 3103 
Q 1469 3103 1208 2742 
Q 947 2381 947 1747 
z
" transform="scale(0.015625)"/>
       <path id="DejaVuSans-61" d="M 2194 1759 
Q 1497 1759 1228 1600 
Q 959 1441 959 1056 
Q 959 750 1161 570 
Q 1363 391 1709 391 
Q 2188 391 2477 730 
Q 2766 1069 2766 1631 
L 2766 1759 
L 2194 1759 
z
M 3341 1997 
L 3341 0 
L 2766 0 
L 2766 531 
Q 2569 213 2275 61 
Q 1981 -91 1556 -91 
Q 1019 -91 701 211 
Q 384 513 384 1019 
Q 384 1609 779 1909 
Q 1175 2209 1959 2209 
L 2766 2209 
L 2766 2266 
Q 2766 2663 2505 2880 
Q 2244 3097 1772 3097 
Q 1472 3097 1187 3025 
Q 903 2953 641 2809 
L 641 3341 
Q 956 3463 1253 3523 
Q 1550 3584 1831 3584 
Q 2591 3584 2966 3190 
Q 3341 2797 3341 1997 
z
" transform="scale(0.015625)"/>
       <path id="DejaVuSans-72" d="M 2631 2963 
Q 2534 3019 2420 3045 
Q 2306 3072 2169 3072 
Q 1681 3072 1420 2755 
Q 1159 2438 1159 1844 
L 1159 0 
L 581 0 
L 581 3500 
L 1159 3500 
L 1159 2956 
Q 1341 3275 1631 3429 
Q 1922 3584 2338 3584 
Q 2397 3584 2469 3576 
Q 2541 3569 2628 3553 
L 2631 2963 
z
" transform="scale(0.015625)"/>
      </defs>
      <use xlink:href="#DejaVuSans-64"/>
      <use xlink:href="#DejaVuSans-61" transform="translate(63.476562 0)"/>
      <use xlink:href="#DejaVuSans-67" transform="translate(124.755859 0)"/>
      <use xlink:href="#DejaVuSans-67" transform="translate(188.232422 0)"/>
      <use xlink:href="#DejaVuSans-65" transform="translate(251.708984 0)"/>
      <use xlink:href="#DejaVuSans-72" transform="translate(313.232422 0)"/>
     </g>
    </g>
    <g id="line2d_28">
     <path d="M 388.632813 81.526875 
L 398.632813 81.526875 
L 408.632813 81.526875 
" style="fill: none; stroke: #fea040; stroke-width: 2; stroke-linecap: square"/>
     <g>
      <use xlink:href="#mf117ed28da" x="398.632813" y="81.526875" style="fill: #fea040; stroke: #fea040; stroke-linejoin: miter"/>
     </g>
    </g>
    <g id="text_25">
     <!-- composition -->
     <g transform="translate(416.632813 85.026875) scale(0.1 -0.1)">
      <use xlink:href="#DejaVuSans-63"/>
      <use xlink:href="#DejaVuSans-6f" transform="translate(54.980469 0)"/>
      <use xlink:href="#DejaVuSans-6d" transform="translate(116.162109 0)"/>
      <use xlink:href="#DejaVuSans-70" transform="translate(213.574219 0)"/>
      <use xlink:href="#DejaVuSans-6f" transform="translate(277.050781 0)"/>
      <use xlink:href="#DejaVuSans-73" transform="translate(338.232422 0)"/>
      <use xlink:href="#DejaVuSans-69" transform="translate(390.332031 0)"/>
      <use xlink:href="#DejaVuSans-74" transform="translate(418.115234 0)"/>
      <use xlink:href="#DejaVuSans-69" transform="translate(457.324219 0)"/>
      <use xlink:href="#DejaVuSans-6f" transform="translate(485.107422 0)"/>
      <use xlink:href="#DejaVuSans-6e" transform="translate(546.289062 0)"/>
     </g>
    </g>
   </g>
  </g>
  <g id="patch_7">
   <path d="M 505.8 503.237812 
L 985.2 503.237812 
L 985.2 23.837812 
L 505.8 23.837812 
z
" style="fill: #ffffff"/>
  </g>
  <g id="pane3d_4">
   <g id="patch_8">
    <path d="M 537.449214 363.400128 
L 745.026658 268.668671 
L 744.778578 70.769001 
L 529.176104 153.194115 
" style="fill: #f2f2f2; opacity: 0.5; stroke: #f2f2f2; stroke-linejoin: miter"/>
   </g>
  </g>
  <g id="pane3d_5">
   <g id="patch_9">
    <path d="M 745.026658 268.668671 
L 965.389223 356.546684 
L 973.574659 147.215617 
L 744.778578 70.769001 
" style="fill: #e6e6e6; opacity: 0.5; stroke: #e6e6e6; stroke-linejoin: miter"/>
   </g>
  </g>
  <g id="pane3d_6">
   <g id="patch_10">
    <path d="M 537.449214 363.400128 
L 760.054709 466.029548 
L 965.389223 356.546684 
L 745.026658 268.668671 
" style="fill: #ececec; opacity: 0.5; stroke: #ececec; stroke-linejoin: miter"/>
   </g>
  </g>
  <g id="grid3d_4">
   <g id="Line3DCollection_4">
    <path d="M 571.002424 378.869407 
L 778.400326 281.977699 
L 779.353881 82.321493 
" style="fill: none; stroke: #b0b0b0; stroke-width: 0.8"/>
    <path d="M 612.587097 398.041489 
L 819.684099 298.441185 
L 822.161377 96.624571 
" style="fill: none; stroke: #b0b0b0; stroke-width: 0.8"/>
    <path d="M 655.388034 417.774314 
L 862.085004 315.35017 
L 866.170214 111.329048 
" style="fill: none; stroke: #b0b0b0; stroke-width: 0.8"/>
    <path d="M 699.459389 438.092849 
L 905.649006 332.722984 
L 911.431683 126.452061 
" style="fill: none; stroke: #b0b0b0; stroke-width: 0.8"/>
    <path d="M 744.858575 459.023564 
L 950.424629 350.578979 
L 958.000036 142.011738 
" style="fill: none; stroke: #b0b0b0; stroke-width: 0.8"/>
   </g>
  </g>
  <g id="grid3d_5">
   <g id="Line3DCollection_5">
    <path d="M 529.176104 153.194115 
L 537.449214 363.400128 
L 760.054709 466.029548 
" style="fill: none; stroke: #b0b0b0; stroke-width: 0.8"/>
    <path d="M 724.109343 78.670877 
L 725.076779 277.773133 
L 945.754734 367.01565 
" style="fill: none; stroke: #b0b0b0; stroke-width: 0.8"/>
   </g>
  </g>
  <g id="grid3d_6">
   <g id="Line3DCollection_6">
    <path d="M 965.528356 352.988538 
L 745.02243 265.296311 
L 537.308618 359.827817 
" style="fill: none; stroke: #b0b0b0; stroke-width: 0.8"/>
    <path d="M 966.887897 318.220187 
L 744.981141 232.358905 
L 535.934736 324.919757 
" style="fill: none; stroke: #b0b0b0; stroke-width: 0.8"/>
    <path d="M 968.264859 283.006302 
L 744.939359 199.028144 
L 534.543155 289.561997 
" style="fill: none; stroke: #b0b0b0; stroke-width: 0.8"/>
    <path d="M 969.65958 247.338265 
L 744.897075 165.296938 
L 533.133532 253.745791 
" style="fill: none; stroke: #b0b0b0; stroke-width: 0.8"/>
    <path d="M 971.072406 211.207232 
L 744.854279 131.158029 
L 531.705511 217.462165 
" style="fill: none; stroke: #b0b0b0; stroke-width: 0.8"/>
    <path d="M 972.50369 174.604129 
L 744.810963 96.603978 
L 530.258732 180.701909 
" style="fill: none; stroke: #b0b0b0; stroke-width: 0.8"/>
   </g>
  </g>
  <g id="axis3d_4">
   <g id="line2d_29">
    <path d="M 537.449214 363.400128 
L 760.054709 466.029548 
" style="fill: none; stroke: #000000; stroke-width: 0.8; stroke-linecap: square"/>
   </g>
   <g id="xtick_18">
    <g id="line2d_30">
     <path d="M 572.790835 378.033901 
L 567.418849 380.543574 
" style="fill: none; stroke: #000000; stroke-width: 0.8; stroke-linecap: square"/>
    </g>
    <g id="text_26">
     <!-- 20000 -->
     <g transform="translate(545.087721 400.712938) scale(0.1 -0.1)">
      <use xlink:href="#DejaVuSans-32"/>
      <use xlink:href="#DejaVuSans-30" transform="translate(63.623047 0)"/>
      <use xlink:href="#DejaVuSans-30" transform="translate(127.246094 0)"/>
      <use xlink:href="#DejaVuSans-30" transform="translate(190.869141 0)"/>
      <use xlink:href="#DejaVuSans-30" transform="translate(254.492188 0)"/>
     </g>
    </g>
   </g>
   <g id="xtick_19">
    <g id="line2d_31">
     <path d="M 614.374772 397.181732 
L 609.004899 399.764295 
" style="fill: none; stroke: #000000; stroke-width: 0.8; stroke-linecap: square"/>
    </g>
    <g id="text_27">
     <!-- 40000 -->
     <g transform="translate(586.607664 420.127522) scale(0.1 -0.1)">
      <use xlink:href="#DejaVuSans-34"/>
      <use xlink:href="#DejaVuSans-30" transform="translate(63.623047 0)"/>
      <use xlink:href="#DejaVuSans-30" transform="translate(127.246094 0)"/>
      <use xlink:href="#DejaVuSans-30" transform="translate(190.869141 0)"/>
      <use xlink:href="#DejaVuSans-30" transform="translate(254.492188 0)"/>
     </g>
    </g>
   </g>
   <g id="xtick_20">
    <g id="line2d_32">
     <path d="M 657.174166 416.889236 
L 651.80883 419.54791 
" style="fill: none; stroke: #000000; stroke-width: 0.8; stroke-linecap: square"/>
    </g>
    <g id="text_28">
     <!-- 60000 -->
     <g transform="translate(629.344345 440.111049) scale(0.1 -0.1)">
      <use xlink:href="#DejaVuSans-36"/>
      <use xlink:href="#DejaVuSans-30" transform="translate(63.623047 0)"/>
      <use xlink:href="#DejaVuSans-30" transform="translate(127.246094 0)"/>
      <use xlink:href="#DejaVuSans-30" transform="translate(190.869141 0)"/>
      <use xlink:href="#DejaVuSans-30" transform="translate(254.492188 0)"/>
     </g>
    </g>
   </g>
   <g id="xtick_21">
    <g id="line2d_33">
     <path d="M 701.243097 437.181314 
L 695.884937 439.919515 
" style="fill: none; stroke: #000000; stroke-width: 0.8; stroke-linecap: square"/>
    </g>
    <g id="text_29">
     <!-- 80000 -->
     <g transform="translate(673.352041 460.688898) scale(0.1 -0.1)">
      <use xlink:href="#DejaVuSans-38"/>
      <use xlink:href="#DejaVuSans-30" transform="translate(63.623047 0)"/>
      <use xlink:href="#DejaVuSans-30" transform="translate(127.246094 0)"/>
      <use xlink:href="#DejaVuSans-30" transform="translate(190.869141 0)"/>
      <use xlink:href="#DejaVuSans-30" transform="translate(254.492188 0)"/>
     </g>
    </g>
   </g>
   <g id="xtick_22">
    <g id="line2d_34">
     <path d="M 746.638903 458.084368 
L 741.290791 460.905718 
" style="fill: none; stroke: #000000; stroke-width: 0.8; stroke-linecap: square"/>
    </g>
    <g id="text_30">
     <!-- 100000 -->
     <g transform="translate(715.507061 481.887984) scale(0.1 -0.1)">
      <use xlink:href="#DejaVuSans-31"/>
      <use xlink:href="#DejaVuSans-30" transform="translate(63.623047 0)"/>
      <use xlink:href="#DejaVuSans-30" transform="translate(127.246094 0)"/>
      <use xlink:href="#DejaVuSans-30" transform="translate(190.869141 0)"/>
      <use xlink:href="#DejaVuSans-30" transform="translate(254.492188 0)"/>
      <use xlink:href="#DejaVuSans-30" transform="translate(318.115234 0)"/>
     </g>
    </g>
   </g>
   <g id="text_31">
    <!-- N -->
    <g transform="translate(618.028792 448.073074) scale(0.12 -0.12)">
     <use xlink:href="#DejaVuSans-4e"/>
    </g>
   </g>
  </g>
  <g id="axis3d_5">
   <g id="line2d_35">
    <path d="M 965.389223 356.546684 
L 760.054709 466.029548 
" style="fill: none; stroke: #000000; stroke-width: 0.8; stroke-linecap: square"/>
   </g>
   <g id="xtick_23">
    <g id="line2d_36">
     <path d="M 758.136046 465.144973 
L 763.899233 467.802016 
" style="fill: none; stroke: #000000; stroke-width: 0.8; stroke-linecap: square"/>
    </g>
    <g id="text_32">
     <!-- 2 -->
     <g transform="translate(767.930956 488.61065) scale(0.1 -0.1)">
      <use xlink:href="#DejaVuSans-32"/>
     </g>
    </g>
   </g>
   <g id="xtick_24">
    <g id="line2d_37">
     <path d="M 943.862224 366.250316 
L 949.546358 368.548989 
" style="fill: none; stroke: #000000; stroke-width: 0.8; stroke-linecap: square"/>
    </g>
    <g id="text_33">
     <!-- 4 -->
     <g transform="translate(953.160305 388.386783) scale(0.1 -0.1)">
      <use xlink:href="#DejaVuSans-34"/>
     </g>
    </g>
   </g>
   <g id="text_34">
    <!-- num_qubits -->
    <g transform="translate(860.936994 459.450971) rotate(-28.066213) scale(0.12 -0.12)">
     <use xlink:href="#DejaVuSans-6e"/>
     <use xlink:href="#DejaVuSans-75" transform="translate(63.378906 0)"/>
     <use xlink:href="#DejaVuSans-6d" transform="translate(126.757812 0)"/>
     <use xlink:href="#DejaVuSans-5f" transform="translate(224.169922 0)"/>
     <use xlink:href="#DejaVuSans-71" transform="translate(274.169922 0)"/>
     <use xlink:href="#DejaVuSans-75" transform="translate(337.646484 0)"/>
     <use xlink:href="#DejaVuSans-62" transform="translate(401.025391 0)"/>
     <use xlink:href="#DejaVuSans-69" transform="translate(464.501953 0)"/>
     <use xlink:href="#DejaVuSans-74" transform="translate(492.285156 0)"/>
     <use xlink:href="#DejaVuSans-73" transform="translate(531.494141 0)"/>
    </g>
   </g>
  </g>
  <g id="axis3d_6">
   <g id="line2d_38">
    <path d="M 965.389223 356.546684 
L 973.574659 147.215617 
" style="fill: none; stroke: #000000; stroke-width: 0.8; stroke-linecap: square"/>
   </g>
   <g id="xtick_25">
    <g id="line2d_39">
     <path d="M 963.638247 352.236868 
L 969.315122 354.494484 
" style="fill: none; stroke: #000000; stroke-width: 0.8; stroke-linecap: square"/>
    </g>
    <g id="text_35">
     <!-- 0 -->
     <g transform="translate(981.962275 360.273694) scale(0.1 -0.1)">
      <use xlink:href="#DejaVuSans-30"/>
     </g>
    </g>
   </g>
   <g id="xtick_26">
    <g id="line2d_40">
     <path d="M 964.984973 317.483898 
L 970.700378 319.695332 
" style="fill: none; stroke: #000000; stroke-width: 0.8; stroke-linecap: square"/>
    </g>
    <g id="text_36">
     <!-- 20 -->
     <g transform="translate(980.265085 325.511753) scale(0.1 -0.1)">
      <use xlink:href="#DejaVuSans-32"/>
      <use xlink:href="#DejaVuSans-30" transform="translate(63.623047 0)"/>
     </g>
    </g>
   </g>
   <g id="xtick_27">
    <g id="line2d_41">
     <path d="M 966.348946 282.285852 
L 972.103406 284.44973 
" style="fill: none; stroke: #000000; stroke-width: 0.8; stroke-linecap: square"/>
    </g>
    <g id="text_37">
     <!-- 40 -->
     <g transform="translate(981.768157 290.304469) scale(0.1 -0.1)">
      <use xlink:href="#DejaVuSans-34"/>
      <use xlink:href="#DejaVuSans-30" transform="translate(63.623047 0)"/>
     </g>
    </g>
   </g>
   <g id="xtick_28">
    <g id="line2d_42">
     <path d="M 967.730501 246.634125 
L 973.524551 248.749031 
" style="fill: none; stroke: #000000; stroke-width: 0.8; stroke-linecap: square"/>
    </g>
    <g id="text_38">
     <!-- 60 -->
     <g transform="translate(983.29061 254.643228) scale(0.1 -0.1)">
      <use xlink:href="#DejaVuSans-36"/>
      <use xlink:href="#DejaVuSans-30" transform="translate(63.623047 0)"/>
     </g>
    </g>
   </g>
   <g id="xtick_29">
    <g id="line2d_43">
     <path d="M 969.129978 210.519887 
L 974.964165 212.584364 
" style="fill: none; stroke: #000000; stroke-width: 0.8; stroke-linecap: square"/>
    </g>
    <g id="text_39">
     <!-- 80 -->
     <g transform="translate(984.83282 218.519194) scale(0.1 -0.1)">
      <use xlink:href="#DejaVuSans-38"/>
      <use xlink:href="#DejaVuSans-30" transform="translate(63.623047 0)"/>
     </g>
    </g>
   </g>
   <g id="xtick_30">
    <g id="line2d_44">
     <path d="M 970.547729 173.93408 
L 976.42261 175.946624 
" style="fill: none; stroke: #000000; stroke-width: 0.8; stroke-linecap: square"/>
    </g>
    <g id="text_40">
     <!-- 100 -->
     <g transform="translate(983.213925 181.9233) scale(0.1 -0.1)">
      <use xlink:href="#DejaVuSans-31"/>
      <use xlink:href="#DejaVuSans-30" transform="translate(63.623047 0)"/>
      <use xlink:href="#DejaVuSans-30" transform="translate(127.246094 0)"/>
     </g>
    </g>
   </g>
   <g id="text_41">
    <!-- RMSE -->
    <g transform="translate(1016.117215 270.15635) rotate(-90) scale(0.12 -0.12)">
     <use xlink:href="#DejaVuSans-52"/>
     <use xlink:href="#DejaVuSans-4d" transform="translate(69.482422 0)"/>
     <use xlink:href="#DejaVuSans-53" transform="translate(155.761719 0)"/>
     <use xlink:href="#DejaVuSans-45" transform="translate(219.238281 0)"/>
    </g>
   </g>
  </g>
  <g id="axes_2">
   <g id="line2d_45">
    <path d="M 737.924822 161.987267 
L 758.620306 174.669213 
L 779.441704 211.651631 
L 800.552677 223.027679 
L 821.8054 244.307114 
L 843.431613 254.741707 
L 865.205933 271.944151 
L 887.409739 281.361492 
L 909.797878 295.146118 
L 932.662765 302.950516 
" clip-path="url(#p7f4f016bd1)" style="fill: none; stroke: #8ecfc9; stroke-width: 2; stroke-linecap: square"/>
    <g clip-path="url(#p7f4f016bd1)">
     <use xlink:href="#meec96040db" x="737.924822" y="161.987267" style="fill: #8ecfc9; stroke: #8ecfc9"/>
     <use xlink:href="#meec96040db" x="758.620306" y="174.669213" style="fill: #8ecfc9; stroke: #8ecfc9"/>
     <use xlink:href="#meec96040db" x="779.441704" y="211.651631" style="fill: #8ecfc9; stroke: #8ecfc9"/>
     <use xlink:href="#meec96040db" x="800.552677" y="223.027679" style="fill: #8ecfc9; stroke: #8ecfc9"/>
     <use xlink:href="#meec96040db" x="821.8054" y="244.307114" style="fill: #8ecfc9; stroke: #8ecfc9"/>
     <use xlink:href="#meec96040db" x="843.431613" y="254.741707" style="fill: #8ecfc9; stroke: #8ecfc9"/>
     <use xlink:href="#meec96040db" x="865.205933" y="271.944151" style="fill: #8ecfc9; stroke: #8ecfc9"/>
     <use xlink:href="#meec96040db" x="887.409739" y="281.361492" style="fill: #8ecfc9; stroke: #8ecfc9"/>
     <use xlink:href="#meec96040db" x="909.797878" y="295.146118" style="fill: #8ecfc9; stroke: #8ecfc9"/>
     <use xlink:href="#meec96040db" x="932.662765" y="302.950516" style="fill: #8ecfc9; stroke: #8ecfc9"/>
    </g>
   </g>
   <g id="line2d_46">
    <path d="M 737.760059 95.720622 
L 758.714649 94.564392 
L 779.621177 175.038664 
L 801.019061 169.343975 
L 822.276079 206.762292 
L 844.038033 217.877109 
L 865.685555 248.467527 
L 888.110415 252.736303 
L 910.519944 269.894841 
L 933.20585 286.385195 
" clip-path="url(#p7f4f016bd1)" style="fill: none; stroke: #96c37d; stroke-width: 2; stroke-linecap: square"/>
    <g clip-path="url(#p7f4f016bd1)">
     <use xlink:href="#m280a58c26e" x="737.760059" y="95.720622" style="fill: #96c37d; stroke: #96c37d; stroke-linejoin: miter"/>
     <use xlink:href="#m280a58c26e" x="758.714649" y="94.564392" style="fill: #96c37d; stroke: #96c37d; stroke-linejoin: miter"/>
     <use xlink:href="#m280a58c26e" x="779.621177" y="175.038664" style="fill: #96c37d; stroke: #96c37d; stroke-linejoin: miter"/>
     <use xlink:href="#m280a58c26e" x="801.019061" y="169.343975" style="fill: #96c37d; stroke: #96c37d; stroke-linejoin: miter"/>
     <use xlink:href="#m280a58c26e" x="822.276079" y="206.762292" style="fill: #96c37d; stroke: #96c37d; stroke-linejoin: miter"/>
     <use xlink:href="#m280a58c26e" x="844.038033" y="217.877109" style="fill: #96c37d; stroke: #96c37d; stroke-linejoin: miter"/>
     <use xlink:href="#m280a58c26e" x="865.685555" y="248.467527" style="fill: #96c37d; stroke: #96c37d; stroke-linejoin: miter"/>
     <use xlink:href="#m280a58c26e" x="888.110415" y="252.736303" style="fill: #96c37d; stroke: #96c37d; stroke-linejoin: miter"/>
     <use xlink:href="#m280a58c26e" x="910.519944" y="269.894841" style="fill: #96c37d; stroke: #96c37d; stroke-linejoin: miter"/>
     <use xlink:href="#m280a58c26e" x="933.20585" y="286.385195" style="fill: #96c37d; stroke: #96c37d; stroke-linejoin: miter"/>
    </g>
   </g>
   <g id="line2d_47">
    <path d="M 738.214258 278.396608 
L 758.487967 287.036237 
L 779.031271 295.380829 
L 799.850398 303.864408 
L 820.951755 312.40025 
L 842.339745 321.116916 
L 864.022254 329.883132 
L 886.004755 338.76025 
L 908.293787 347.745466 
L 930.893832 356.906956 
" clip-path="url(#p7f4f016bd1)" style="fill: none; stroke: #f28080; stroke-width: 2; stroke-linecap: square"/>
    <g clip-path="url(#p7f4f016bd1)">
     <use xlink:href="#m7afe2f9981" x="738.214258" y="278.396608" style="fill: #f28080; stroke: #f28080; stroke-linejoin: miter"/>
     <use xlink:href="#m7afe2f9981" x="758.487967" y="287.036237" style="fill: #f28080; stroke: #f28080; stroke-linejoin: miter"/>
     <use xlink:href="#m7afe2f9981" x="779.031271" y="295.380829" style="fill: #f28080; stroke: #f28080; stroke-linejoin: miter"/>
     <use xlink:href="#m7afe2f9981" x="799.850398" y="303.864408" style="fill: #f28080; stroke: #f28080; stroke-linejoin: miter"/>
     <use xlink:href="#m7afe2f9981" x="820.951755" y="312.40025" style="fill: #f28080; stroke: #f28080; stroke-linejoin: miter"/>
     <use xlink:href="#m7afe2f9981" x="842.339745" y="321.116916" style="fill: #f28080; stroke: #f28080; stroke-linejoin: miter"/>
     <use xlink:href="#m7afe2f9981" x="864.022254" y="329.883132" style="fill: #f28080; stroke: #f28080; stroke-linejoin: miter"/>
     <use xlink:href="#m7afe2f9981" x="886.004755" y="338.76025" style="fill: #f28080; stroke: #f28080; stroke-linejoin: miter"/>
     <use xlink:href="#m7afe2f9981" x="908.293787" y="347.745466" style="fill: #f28080; stroke: #f28080; stroke-linejoin: miter"/>
     <use xlink:href="#m7afe2f9981" x="930.893832" y="356.906956" style="fill: #f28080; stroke: #f28080; stroke-linejoin: miter"/>
    </g>
   </g>
   <g id="line2d_48">
    <path d="M 738.171948 261.379796 
L 758.495899 280.301708 
L 779.050331 291.492477 
L 799.880819 300.362673 
L 820.98104 310.064217 
L 842.373571 319.060644 
L 864.053924 328.332962 
L 886.038031 337.400801 
L 908.331093 346.440851 
L 930.928252 355.857071 
" clip-path="url(#p7f4f016bd1)" style="fill: none; stroke: #fea040; stroke-width: 2; stroke-linecap: square"/>
    <g clip-path="url(#p7f4f016bd1)">
     <use xlink:href="#mf117ed28da" x="738.171948" y="261.379796" style="fill: #fea040; stroke: #fea040; stroke-linejoin: miter"/>
     <use xlink:href="#mf117ed28da" x="758.495899" y="280.301708" style="fill: #fea040; stroke: #fea040; stroke-linejoin: miter"/>
     <use xlink:href="#mf117ed28da" x="779.050331" y="291.492477" style="fill: #fea040; stroke: #fea040; stroke-linejoin: miter"/>
     <use xlink:href="#mf117ed28da" x="799.880819" y="300.362673" style="fill: #fea040; stroke: #fea040; stroke-linejoin: miter"/>
     <use xlink:href="#mf117ed28da" x="820.98104" y="310.064217" style="fill: #fea040; stroke: #fea040; stroke-linejoin: miter"/>
     <use xlink:href="#mf117ed28da" x="842.373571" y="319.060644" style="fill: #fea040; stroke: #fea040; stroke-linejoin: miter"/>
     <use xlink:href="#mf117ed28da" x="864.053924" y="328.332962" style="fill: #fea040; stroke: #fea040; stroke-linejoin: miter"/>
     <use xlink:href="#mf117ed28da" x="886.038031" y="337.400801" style="fill: #fea040; stroke: #fea040; stroke-linejoin: miter"/>
     <use xlink:href="#mf117ed28da" x="908.331093" y="346.440851" style="fill: #fea040; stroke: #fea040; stroke-linejoin: miter"/>
     <use xlink:href="#mf117ed28da" x="930.928252" y="355.857071" style="fill: #fea040; stroke: #fea040; stroke-linejoin: miter"/>
    </g>
   </g>
   <g id="text_42">
    <!-- 4 Qubits -->
    <g transform="translate(716.095625 17.837812) scale(0.14 -0.14)">
     <use xlink:href="#DejaVuSans-34"/>
     <use xlink:href="#DejaVuSans-20" transform="translate(63.623047 0)"/>
     <use xlink:href="#DejaVuSans-51" transform="translate(95.410156 0)"/>
     <use xlink:href="#DejaVuSans-75" transform="translate(174.121094 0)"/>
     <use xlink:href="#DejaVuSans-62" transform="translate(237.5 0)"/>
     <use xlink:href="#DejaVuSans-69" transform="translate(300.976562 0)"/>
     <use xlink:href="#DejaVuSans-74" transform="translate(328.759766 0)"/>
     <use xlink:href="#DejaVuSans-73" transform="translate(367.96875 0)"/>
    </g>
   </g>
   <g id="legend_2">
    <g id="patch_11">
     <path d="M 885.232813 91.106562 
L 978.2 91.106562 
Q 980.2 91.106562 980.2 89.106562 
L 980.2 30.837812 
Q 980.2 28.837812 978.2 28.837812 
L 885.232813 28.837812 
Q 883.232813 28.837812 883.232813 30.837812 
L 883.232813 89.106562 
Q 883.232813 91.106562 885.232813 91.106562 
z
" style="fill: #ffffff; opacity: 0.8; stroke: #cccccc; stroke-linejoin: miter"/>
    </g>
    <g id="line2d_49">
     <path d="M 887.232813 36.93625 
L 897.232813 36.93625 
L 907.232813 36.93625 
" style="fill: none; stroke: #8ecfc9; stroke-width: 2; stroke-linecap: square"/>
     <g>
      <use xlink:href="#meec96040db" x="897.232813" y="36.93625" style="fill: #8ecfc9; stroke: #8ecfc9"/>
     </g>
    </g>
    <g id="text_43">
     <!-- qpt_single -->
     <g transform="translate(915.232813 40.43625) scale(0.1 -0.1)">
      <use xlink:href="#DejaVuSans-71"/>
      <use xlink:href="#DejaVuSans-70" transform="translate(63.476562 0)"/>
      <use xlink:href="#DejaVuSans-74" transform="translate(126.953125 0)"/>
      <use xlink:href="#DejaVuSans-5f" transform="translate(166.162109 0)"/>
      <use xlink:href="#DejaVuSans-73" transform="translate(216.162109 0)"/>
      <use xlink:href="#DejaVuSans-69" transform="translate(268.261719 0)"/>
      <use xlink:href="#DejaVuSans-6e" transform="translate(296.044922 0)"/>
      <use xlink:href="#DejaVuSans-67" transform="translate(359.423828 0)"/>
      <use xlink:href="#DejaVuSans-6c" transform="translate(422.900391 0)"/>
      <use xlink:href="#DejaVuSans-65" transform="translate(450.683594 0)"/>
     </g>
    </g>
    <g id="line2d_50">
     <path d="M 887.232813 51.8925 
L 897.232813 51.8925 
L 907.232813 51.8925 
" style="fill: none; stroke: #96c37d; stroke-width: 2; stroke-linecap: square"/>
     <g>
      <use xlink:href="#m280a58c26e" x="897.232813" y="51.8925" style="fill: #96c37d; stroke: #96c37d; stroke-linejoin: miter"/>
     </g>
    </g>
    <g id="text_44">
     <!-- qpt_com -->
     <g transform="translate(915.232813 55.3925) scale(0.1 -0.1)">
      <use xlink:href="#DejaVuSans-71"/>
      <use xlink:href="#DejaVuSans-70" transform="translate(63.476562 0)"/>
      <use xlink:href="#DejaVuSans-74" transform="translate(126.953125 0)"/>
      <use xlink:href="#DejaVuSans-5f" transform="translate(166.162109 0)"/>
      <use xlink:href="#DejaVuSans-63" transform="translate(216.162109 0)"/>
      <use xlink:href="#DejaVuSans-6f" transform="translate(271.142578 0)"/>
      <use xlink:href="#DejaVuSans-6d" transform="translate(332.324219 0)"/>
     </g>
    </g>
    <g id="line2d_51">
     <path d="M 887.232813 66.84875 
L 897.232813 66.84875 
L 907.232813 66.84875 
" style="fill: none; stroke: #f28080; stroke-width: 2; stroke-linecap: square"/>
     <g>
      <use xlink:href="#m7afe2f9981" x="897.232813" y="66.84875" style="fill: #f28080; stroke: #f28080; stroke-linejoin: miter"/>
     </g>
    </g>
    <g id="text_45">
     <!-- dagger -->
     <g transform="translate(915.232813 70.34875) scale(0.1 -0.1)">
      <use xlink:href="#DejaVuSans-64"/>
      <use xlink:href="#DejaVuSans-61" transform="translate(63.476562 0)"/>
      <use xlink:href="#DejaVuSans-67" transform="translate(124.755859 0)"/>
      <use xlink:href="#DejaVuSans-67" transform="translate(188.232422 0)"/>
      <use xlink:href="#DejaVuSans-65" transform="translate(251.708984 0)"/>
      <use xlink:href="#DejaVuSans-72" transform="translate(313.232422 0)"/>
     </g>
    </g>
    <g id="line2d_52">
     <path d="M 887.232813 81.526875 
L 897.232813 81.526875 
L 907.232813 81.526875 
" style="fill: none; stroke: #fea040; stroke-width: 2; stroke-linecap: square"/>
     <g>
      <use xlink:href="#mf117ed28da" x="897.232813" y="81.526875" style="fill: #fea040; stroke: #fea040; stroke-linejoin: miter"/>
     </g>
    </g>
    <g id="text_46">
     <!-- composition -->
     <g transform="translate(915.232813 85.026875) scale(0.1 -0.1)">
      <use xlink:href="#DejaVuSans-63"/>
      <use xlink:href="#DejaVuSans-6f" transform="translate(54.980469 0)"/>
      <use xlink:href="#DejaVuSans-6d" transform="translate(116.162109 0)"/>
      <use xlink:href="#DejaVuSans-70" transform="translate(213.574219 0)"/>
      <use xlink:href="#DejaVuSans-6f" transform="translate(277.050781 0)"/>
      <use xlink:href="#DejaVuSans-73" transform="translate(338.232422 0)"/>
      <use xlink:href="#DejaVuSans-69" transform="translate(390.332031 0)"/>
      <use xlink:href="#DejaVuSans-74" transform="translate(418.115234 0)"/>
      <use xlink:href="#DejaVuSans-69" transform="translate(457.324219 0)"/>
      <use xlink:href="#DejaVuSans-6f" transform="translate(485.107422 0)"/>
      <use xlink:href="#DejaVuSans-6e" transform="translate(546.289062 0)"/>
     </g>
    </g>
   </g>
  </g>
 </g>
 <defs>
  <clipPath id="p7605f718b2">
   <rect x="7.2" y="23.837812" width="479.4" height="479.4"/>
  </clipPath>
  <clipPath id="p7f4f016bd1">
   <rect x="505.8" y="23.837812" width="479.4" height="479.4"/>
  </clipPath>
 </defs>
</svg>
